<mxfile host="app.diagrams.net" modified="2023-03-20T11:06:16.299Z" agent="5.0 (Windows NT 10.0; Win64; x64) AppleWebKit/537.36 (KHTML, like Gecko) Chrome/111.0.0.0 Safari/537.36" etag="Z-JZIKPxvNfmy9t0BGnz" version="21.0.8" type="github">
  <diagram name="第 1 页" id="9U5T3cRguR6DOCcID6v3">
    <mxGraphModel dx="1302" dy="1098" grid="1" gridSize="10" guides="1" tooltips="1" connect="1" arrows="1" fold="1" page="0" pageScale="1" pageWidth="827" pageHeight="1169" math="0" shadow="0">
      <root>
        <mxCell id="0" />
        <mxCell id="1" parent="0" />
        <mxCell id="QDau9Pd2753zbb-ycv-e-3" style="edgeStyle=orthogonalEdgeStyle;rounded=0;orthogonalLoop=1;jettySize=auto;html=1;exitX=0.5;exitY=1;exitDx=0;exitDy=0;" edge="1" parent="1" source="QDau9Pd2753zbb-ycv-e-1" target="QDau9Pd2753zbb-ycv-e-2">
          <mxGeometry relative="1" as="geometry" />
        </mxCell>
        <mxCell id="QDau9Pd2753zbb-ycv-e-1" value="开始" style="rounded=1;whiteSpace=wrap;html=1;" vertex="1" parent="1">
          <mxGeometry x="260" y="-130" width="80" height="40" as="geometry" />
        </mxCell>
        <mxCell id="QDau9Pd2753zbb-ycv-e-6" style="edgeStyle=orthogonalEdgeStyle;rounded=0;orthogonalLoop=1;jettySize=auto;html=1;exitX=0.5;exitY=1;exitDx=0;exitDy=0;entryX=0.5;entryY=0;entryDx=0;entryDy=0;" edge="1" parent="1" source="QDau9Pd2753zbb-ycv-e-2" target="QDau9Pd2753zbb-ycv-e-13">
          <mxGeometry relative="1" as="geometry">
            <mxPoint x="300" y="90" as="targetPoint" />
          </mxGeometry>
        </mxCell>
        <mxCell id="QDau9Pd2753zbb-ycv-e-2" value="输入查询图、数据图&lt;br&gt;&lt;br&gt;可调参数" style="shape=parallelogram;perimeter=parallelogramPerimeter;whiteSpace=wrap;html=1;fixedSize=1;" vertex="1" parent="1">
          <mxGeometry x="230" y="-30" width="140" height="70" as="geometry" />
        </mxCell>
        <mxCell id="QDau9Pd2753zbb-ycv-e-18" style="edgeStyle=orthogonalEdgeStyle;rounded=0;orthogonalLoop=1;jettySize=auto;html=1;exitX=0.5;exitY=1;exitDx=0;exitDy=0;entryX=0.5;entryY=0;entryDx=0;entryDy=0;" edge="1" parent="1" source="QDau9Pd2753zbb-ycv-e-7" target="QDau9Pd2753zbb-ycv-e-16">
          <mxGeometry relative="1" as="geometry" />
        </mxCell>
        <mxCell id="QDau9Pd2753zbb-ycv-e-7" value="子图匹配算法" style="rounded=0;whiteSpace=wrap;html=1;" vertex="1" parent="1">
          <mxGeometry x="240" y="260" width="120" height="60" as="geometry" />
        </mxCell>
        <mxCell id="QDau9Pd2753zbb-ycv-e-15" style="edgeStyle=orthogonalEdgeStyle;rounded=0;orthogonalLoop=1;jettySize=auto;html=1;exitX=0.5;exitY=1;exitDx=0;exitDy=0;" edge="1" parent="1" source="QDau9Pd2753zbb-ycv-e-13" target="QDau9Pd2753zbb-ycv-e-7">
          <mxGeometry relative="1" as="geometry" />
        </mxCell>
        <mxCell id="QDau9Pd2753zbb-ycv-e-13" value="更新数据图" style="rounded=0;whiteSpace=wrap;html=1;" vertex="1" parent="1">
          <mxGeometry x="240" y="140" width="120" height="60" as="geometry" />
        </mxCell>
        <mxCell id="QDau9Pd2753zbb-ycv-e-19" style="edgeStyle=orthogonalEdgeStyle;rounded=0;orthogonalLoop=1;jettySize=auto;html=1;exitX=0.5;exitY=1;exitDx=0;exitDy=0;" edge="1" parent="1" source="QDau9Pd2753zbb-ycv-e-16">
          <mxGeometry relative="1" as="geometry">
            <mxPoint x="300" y="480" as="targetPoint" />
          </mxGeometry>
        </mxCell>
        <mxCell id="QDau9Pd2753zbb-ycv-e-43" value="是" style="edgeLabel;html=1;align=center;verticalAlign=middle;resizable=0;points=[];" vertex="1" connectable="0" parent="QDau9Pd2753zbb-ycv-e-19">
          <mxGeometry x="-0.1889" relative="1" as="geometry">
            <mxPoint as="offset" />
          </mxGeometry>
        </mxCell>
        <mxCell id="QDau9Pd2753zbb-ycv-e-36" style="edgeStyle=orthogonalEdgeStyle;rounded=0;orthogonalLoop=1;jettySize=auto;html=1;exitX=0;exitY=0.5;exitDx=0;exitDy=0;entryX=0;entryY=0.5;entryDx=0;entryDy=0;" edge="1" parent="1" source="QDau9Pd2753zbb-ycv-e-16" target="QDau9Pd2753zbb-ycv-e-25">
          <mxGeometry relative="1" as="geometry">
            <Array as="points">
              <mxPoint x="200" y="395" />
              <mxPoint x="200" y="605" />
            </Array>
          </mxGeometry>
        </mxCell>
        <mxCell id="QDau9Pd2753zbb-ycv-e-42" value="否" style="edgeLabel;html=1;align=center;verticalAlign=middle;resizable=0;points=[];" vertex="1" connectable="0" parent="QDau9Pd2753zbb-ycv-e-36">
          <mxGeometry x="-0.0478" relative="1" as="geometry">
            <mxPoint as="offset" />
          </mxGeometry>
        </mxCell>
        <mxCell id="QDau9Pd2753zbb-ycv-e-16" value="是否检测到&lt;br&gt;完整子图匹配" style="rhombus;whiteSpace=wrap;html=1;" vertex="1" parent="1">
          <mxGeometry x="240" y="360" width="120" height="70" as="geometry" />
        </mxCell>
        <mxCell id="QDau9Pd2753zbb-ycv-e-29" style="edgeStyle=orthogonalEdgeStyle;rounded=0;orthogonalLoop=1;jettySize=auto;html=1;exitX=0.5;exitY=1;exitDx=0;exitDy=0;" edge="1" parent="1" source="QDau9Pd2753zbb-ycv-e-23" target="QDau9Pd2753zbb-ycv-e-25">
          <mxGeometry relative="1" as="geometry" />
        </mxCell>
        <mxCell id="QDau9Pd2753zbb-ycv-e-23" value="输出结果" style="shape=parallelogram;perimeter=parallelogramPerimeter;whiteSpace=wrap;html=1;fixedSize=1;" vertex="1" parent="1">
          <mxGeometry x="240" y="480" width="120" height="60" as="geometry" />
        </mxCell>
        <mxCell id="QDau9Pd2753zbb-ycv-e-30" style="edgeStyle=orthogonalEdgeStyle;rounded=0;orthogonalLoop=1;jettySize=auto;html=1;exitX=0.5;exitY=1;exitDx=0;exitDy=0;entryX=0.5;entryY=0;entryDx=0;entryDy=0;" edge="1" parent="1" source="QDau9Pd2753zbb-ycv-e-25" target="QDau9Pd2753zbb-ycv-e-28">
          <mxGeometry relative="1" as="geometry" />
        </mxCell>
        <mxCell id="QDau9Pd2753zbb-ycv-e-44" value="否" style="edgeLabel;html=1;align=center;verticalAlign=middle;resizable=0;points=[];" vertex="1" connectable="0" parent="QDau9Pd2753zbb-ycv-e-30">
          <mxGeometry x="-0.2407" y="1" relative="1" as="geometry">
            <mxPoint as="offset" />
          </mxGeometry>
        </mxCell>
        <mxCell id="QDau9Pd2753zbb-ycv-e-31" style="edgeStyle=orthogonalEdgeStyle;rounded=0;orthogonalLoop=1;jettySize=auto;html=1;exitX=1;exitY=0.5;exitDx=0;exitDy=0;entryX=1;entryY=0.5;entryDx=0;entryDy=0;" edge="1" parent="1" source="QDau9Pd2753zbb-ycv-e-25" target="QDau9Pd2753zbb-ycv-e-13">
          <mxGeometry relative="1" as="geometry">
            <Array as="points">
              <mxPoint x="460" y="605" />
              <mxPoint x="460" y="170" />
            </Array>
          </mxGeometry>
        </mxCell>
        <mxCell id="QDau9Pd2753zbb-ycv-e-47" value="是" style="edgeLabel;html=1;align=center;verticalAlign=middle;resizable=0;points=[];" vertex="1" connectable="0" parent="QDau9Pd2753zbb-ycv-e-31">
          <mxGeometry x="0.042" y="1" relative="1" as="geometry">
            <mxPoint as="offset" />
          </mxGeometry>
        </mxCell>
        <mxCell id="QDau9Pd2753zbb-ycv-e-25" value="是否继续更新&lt;br&gt;数据图" style="rhombus;whiteSpace=wrap;html=1;" vertex="1" parent="1">
          <mxGeometry x="240" y="570" width="120" height="70" as="geometry" />
        </mxCell>
        <mxCell id="QDau9Pd2753zbb-ycv-e-28" value="结束" style="rounded=1;whiteSpace=wrap;html=1;" vertex="1" parent="1">
          <mxGeometry x="240" y="670" width="120" height="60" as="geometry" />
        </mxCell>
      </root>
    </mxGraphModel>
  </diagram>
</mxfile>
